<svg width="32" height="32" viewBox="0 0 32 32" fill="none" xmlns="http://www.w3.org/2000/svg">
<path d="M10.1344 25.1928C9.69596 24.9397 9.52173 24.4047 9.70843 23.9489L9.76837 23.8268L18.5584 8.60363L9.90572 10.9411C9.37256 11.0852 8.82354 10.7698 8.67945 10.2366C8.54846 9.75195 8.79722 9.25415 9.24409 9.05939L9.38392 9.01037L20.3732 6.04043C20.4434 6.02144 20.514 6.01043 20.5839 6.00685C20.6045 6.00638 20.6256 6.00595 20.6468 6.0062C20.6653 6.00584 20.6838 6.00659 20.7022 6.00785C20.7288 6.01014 20.7559 6.01306 20.7829 6.01712C20.804 6.01988 20.8239 6.02354 20.8437 6.0278C20.868 6.03335 20.8936 6.03986 20.9191 6.04743C20.937 6.05248 20.9538 6.05801 20.9705 6.06398C20.9951 6.07308 21.0202 6.08321 21.0451 6.09443C21.0642 6.10276 21.0826 6.1118 21.1008 6.12138C21.1117 6.12743 21.1231 6.13373 21.1344 6.14027L21.1677 6.16007C21.1843 6.17055 21.2006 6.18151 21.2166 6.19296L21.1344 6.14027C21.189 6.17182 21.2396 6.20775 21.2858 6.24737C21.2969 6.25676 21.3081 6.26677 21.319 6.27704C21.3416 6.29825 21.3626 6.31985 21.3825 6.34225C21.3924 6.35332 21.4027 6.36555 21.4128 6.37804C21.433 6.4032 21.4515 6.42855 21.4687 6.45462C21.4769 6.46681 21.4851 6.47998 21.4931 6.49338C21.5061 6.51531 21.5179 6.53701 21.529 6.55909C21.5368 6.57469 21.5446 6.59148 21.5519 6.60855L21.5576 6.62181C21.5746 6.66274 21.5889 6.70473 21.6003 6.74748L21.6005 6.74898L24.5243 17.7516C24.6661 18.2853 24.3484 18.833 23.8146 18.9749C23.3294 19.1038 22.8326 18.853 22.6398 18.4053L22.5913 18.2652L20.2891 9.60594L11.5004 24.8268C11.2243 25.3051 10.6127 25.469 10.1344 25.1928Z" fill="#2FA841"/>
</svg>
