<svg width="24" height="24" viewBox="0 0 24 24" fill="none" xmlns="http://www.w3.org/2000/svg">
<path d="M12.6571 14.9841C10.9375 15.3305 9.26259 14.2174 8.91614 12.4978C8.56969 10.7782 9.68285 9.10331 11.4025 8.75686C13.1221 8.41041 14.7969 9.52357 15.1434 11.2432C15.4898 12.9628 14.3767 14.6376 12.6571 14.9841Z" stroke="black"/>
<path d="M15.4731 17.5373C15.6251 17.7907 15.955 17.8745 16.1962 17.704C17.3336 16.9001 18.2142 15.778 18.7235 14.4733C19.2978 13.002 19.3674 11.3816 18.9215 9.86647C18.4756 8.3513 17.5394 7.02701 16.2596 6.10134C14.9799 5.17567 13.4291 4.70099 11.8505 4.75176C10.2719 4.80253 8.75479 5.37588 7.53718 6.38188C6.31958 7.38787 5.47036 8.76958 5.12273 10.3103C4.77511 11.851 4.94875 13.4635 5.61641 14.8948C6.20848 16.1641 7.15933 17.2273 8.34602 17.9564C8.59772 18.1111 8.92159 18.0063 9.05695 17.7437C9.19231 17.4811 9.08763 17.1605 8.838 17.0025C7.86102 16.3843 7.0778 15.4971 6.58591 14.4426C6.0184 13.2259 5.8708 11.8553 6.16628 10.5457C6.46177 9.23614 7.1836 8.06168 8.21857 7.20659C9.25353 6.3515 10.5431 5.86415 11.8849 5.82099C13.2267 5.77784 14.5449 6.18132 15.6326 6.96814C16.7204 7.75496 17.5162 8.8806 17.8953 10.1685C18.2743 11.4564 18.2151 12.8337 17.7269 14.0843C17.3038 15.1682 16.5792 16.1039 15.644 16.7836C15.405 16.9573 15.3211 17.284 15.4731 17.5373Z" fill="#272727"/>
<path d="M16.9787 20.3004C17.1235 20.5417 17.4372 20.621 17.671 20.4644C19.3974 19.3078 20.7325 17.6481 21.4911 15.7047C22.3115 13.6028 22.4111 11.2881 21.7741 9.12356C21.137 6.95903 19.7995 5.06719 17.9713 3.7448C16.1432 2.42241 13.9277 1.7443 11.6726 1.81683C9.41742 1.88936 7.25014 2.70843 5.51071 4.14556C3.77127 5.58269 2.5581 7.55657 2.06149 9.75756C1.56488 11.9586 1.81294 14.2621 2.76675 16.3069C3.64862 18.1975 5.08768 19.768 6.88486 20.8113C7.12817 20.9525 7.43618 20.8532 7.56509 20.6031C7.69401 20.3531 7.59493 20.0471 7.3524 19.9045C5.75544 18.9655 4.47656 17.5623 3.69008 15.8762C2.83165 14.0359 2.6084 11.9627 3.05535 9.98181C3.5023 8.00092 4.59415 6.22442 6.15964 4.93101C7.72513 3.63759 9.67569 2.90042 11.7053 2.83514C13.735 2.76987 15.7289 3.38017 17.3742 4.57032C19.0196 5.76047 20.2233 7.46313 20.7967 9.4112C21.37 11.3593 21.2804 13.4426 20.542 15.3342C19.8655 17.0674 18.6794 18.5498 17.1461 19.5895C16.9132 19.7474 16.834 20.0591 16.9787 20.3004Z" fill="#272727"/>
</svg>
