<svg width="24" height="24" viewBox="0 0 24 24" fill="none" xmlns="http://www.w3.org/2000/svg">
<path fill-rule="evenodd" clip-rule="evenodd" d="M23.5269 16.3927C23.5494 16.8423 23.1823 17.2075 22.7322 17.2075C22.282 17.2075 21.9194 16.8423 21.8944 16.3928C21.7813 14.3587 21.2456 12.3672 20.318 10.5467C19.2668 8.48373 17.7423 6.6988 15.8692 5.33787C13.996 3.97695 11.8274 3.07866 9.54054 2.71646C7.52247 2.39683 5.46293 2.50269 3.4934 3.02369C3.0582 3.13881 2.59881 2.90685 2.4597 2.47871C2.32059 2.05058 2.55447 1.58864 2.98902 1.47111C5.20384 0.872039 7.52336 0.746464 9.79556 1.10634C12.3365 1.50879 14.7461 2.50688 16.8274 4.01902C18.9087 5.53117 20.6025 7.51442 21.7705 9.80663C22.8149 11.8564 23.4122 14.1012 23.5269 16.3927ZM17.2982 17.2075C17.7484 17.2075 18.1165 16.8421 18.0828 16.3932C17.9751 14.9598 17.5838 13.5592 16.9288 12.2736C16.1502 10.7455 15.0209 9.42329 13.6334 8.41519C12.2459 7.4071 10.6395 6.7417 8.9455 6.47341C7.52044 6.2477 6.06746 6.30842 4.67094 6.64893C4.23358 6.75557 3.99978 7.21859 4.13889 7.64672C4.278 8.07485 4.73735 8.30538 5.17607 8.20454C6.32653 7.94011 7.5196 7.89807 8.69049 8.08352C10.1303 8.31158 11.4958 8.87716 12.6752 9.73404C13.8546 10.5909 14.8144 11.7148 15.4763 13.0137C16.0145 14.07 16.3432 15.2176 16.4472 16.3935C16.4869 16.8419 16.8481 17.2075 17.2982 17.2075ZM7.24539 22.0472C9.91824 22.0472 12.085 19.8804 12.085 17.2075C12.085 14.5347 9.91824 12.3679 7.24539 12.3679C4.57253 12.3679 2.40576 14.5347 2.40576 17.2075C2.40576 19.8804 4.57253 22.0472 7.24539 22.0472ZM7.24539 23.5472C10.7467 23.5472 13.585 20.7088 13.585 17.2075C13.585 13.7063 10.7467 10.8679 7.24539 10.8679C3.74411 10.8679 0.905762 13.7063 0.905762 17.2075C0.905762 20.7088 3.74411 23.5472 7.24539 23.5472Z" fill="#272727"/>
</svg>
