<svg width="24" height="24" viewBox="0 0 24 24" fill="none" xmlns="http://www.w3.org/2000/svg">
<path fill-rule="evenodd" clip-rule="evenodd" d="M13.9753 2.00031C14.0183 2.00031 14.0604 2.00392 14.1014 2.01087L14.2382 2.01171C14.4422 2.01171 14.6372 2.09471 14.7792 2.24171L19.8442 7.51871C19.9782 7.65771 20.0533 7.84471 20.0533 8.03771V17.2037C20.0712 19.7127 18.1172 21.7627 15.6042 21.8647L7.58522 21.8657H7.47622C5.02628 21.8103 3.06138 19.8289 3.00152 17.4029L3.00122 6.49071C3.05922 4.00971 5.10822 2.01171 7.57122 2.01171L13.8493 2.01087C13.8903 2.00392 13.9324 2.00031 13.9753 2.00031ZM13.2252 3.51131L7.57322 3.51171C5.91622 3.51171 4.54022 4.85371 4.50122 6.50871V17.2037C4.46422 18.9167 5.81422 20.3277 7.51022 20.3657H15.5742C17.2432 20.2967 18.5652 18.9097 18.5533 17.2097L18.5532 8.98331L16.5433 8.98431C14.7133 8.97931 13.2253 7.48731 13.2253 5.65931L13.2252 3.51131ZM13.7885 14.6084C14.2025 14.6084 14.5385 14.9444 14.5385 15.3584C14.5385 15.7724 14.2025 16.1084 13.7885 16.1084H8.38852C7.97452 16.1084 7.63852 15.7724 7.63852 15.3584C7.63852 14.9444 7.97452 14.6084 8.38852 14.6084H13.7885ZM11.7436 10.8564C12.1576 10.8564 12.4936 11.1924 12.4936 11.6064C12.4936 12.0204 12.1576 12.3564 11.7436 12.3564H8.38762C7.97362 12.3564 7.63762 12.0204 7.63762 11.6064C7.63762 11.1924 7.97362 10.8564 8.38762 10.8564H11.7436ZM14.7252 4.35231L14.7253 5.65931C14.7253 6.66331 15.5423 7.48131 16.5453 7.48431L17.7312 7.48331L14.7252 4.35231Z" fill="black"/>
</svg>
