<svg width="24" height="24" viewBox="0 0 24 24" fill="none" xmlns="http://www.w3.org/2000/svg">
<path d="M4.19995 6V17.4L19.7999 11.4L4.19995 6Z" stroke="#272727" stroke-width="1.2" stroke-linejoin="round"/>
<path d="M6.10005 6.00022C6.10005 7.04956 5.24939 7.90022 4.20005 7.90022C3.15071 7.90022 2.30005 7.04956 2.30005 6.00022C2.30005 4.95088 3.15071 4.10022 4.20005 4.10022C5.24939 4.10022 6.10005 4.95088 6.10005 6.00022Z" fill="white" stroke="#272727"/>
<path d="M6.10005 17.4C6.10005 18.4493 5.24939 19.3 4.20005 19.3C3.15071 19.3 2.30005 18.4493 2.30005 17.4C2.30005 16.3507 3.15071 15.5 4.20005 15.5C5.24939 15.5 6.10005 16.3507 6.10005 17.4Z" fill="white" stroke="#272727"/>
<circle cx="19.7999" cy="11.4" r="1.9" fill="white" stroke="#272727"/>
</svg>
