<svg width="24" height="24" viewBox="0 0 24 24" fill="none" xmlns="http://www.w3.org/2000/svg">
<path fill-rule="evenodd" clip-rule="evenodd" d="M19.2164 12.9091C18.8062 16.1988 16.1988 18.8062 12.909 19.2164V21.0909C12.909 21.593 12.502 22 11.9999 22C11.4978 22 11.0908 21.593 11.0908 21.0909V19.2164C7.8011 18.8062 5.19372 16.1988 4.7835 12.9091H2.90909C2.40701 12.9091 2 12.502 2 12C2 11.4979 2.40701 11.0909 2.90909 11.0909H4.78351C5.19373 7.80115 7.80111 5.19376 11.0908 4.78351V2.90909C11.0908 2.40701 11.4978 2 11.9999 2C12.502 2 12.909 2.40701 12.909 2.90909V4.7835C16.1988 5.1937 18.8062 7.80111 19.2164 11.0909H21.0909C21.593 11.0909 22 11.4979 22 12C22 12.502 21.593 12.9091 21.0909 12.9091H19.2164ZM11.9999 9.27273C12.502 9.27273 12.909 8.86572 12.909 8.36364V6.33735C15.3479 6.72581 17.2741 8.652 17.6626 11.0909H15.6364C15.1343 11.0909 14.7273 11.4979 14.7273 12C14.7273 12.502 15.1343 12.9091 15.6364 12.9091H17.6626C17.2741 15.3479 15.3479 17.2741 12.909 17.6626V15.6364C12.909 15.1343 12.502 14.7273 11.9999 14.7273C11.4978 14.7273 11.0908 15.1343 11.0908 15.6364V17.6626C8.652 17.2741 6.72583 15.3479 6.33736 12.9091H8.36364C8.86572 12.9091 9.27273 12.502 9.27273 12C9.27273 11.4979 8.86572 11.0909 8.36364 11.0909H6.33736C6.72584 8.65204 8.652 6.72587 11.0908 6.33737V8.36364C11.0908 8.86572 11.4978 9.27273 11.9999 9.27273Z" fill="#272727"/>
</svg>
