<svg width="24" height="24" viewBox="0 0 24 24" fill="none" xmlns="http://www.w3.org/2000/svg">
<path fill-rule="evenodd" clip-rule="evenodd" d="M14.65 4.97999L9.65 3.22999C9.23 3.07999 8.77 3.07999 8.35 3.21999L4.36 4.55999C3.55 4.83999 3 5.59999 3 6.45999V18.31C3 19.72 4.41 20.68 5.72 20.17L8.65 19.03C8.87 18.94 9.12 18.94 9.34 19.02L14.34 20.77C14.76 20.92 15.22 20.92 15.64 20.78L19.63 19.44C20.44 19.17 20.99 18.4 20.99 17.54V5.68999C20.99 4.27999 19.58 3.31999 18.27 3.82999L15.34 4.96999C15.12 5.04999 14.88 5.05999 14.65 4.97999ZM15 18.9041C15 19.2489 14.6593 19.4902 14.3341 19.3758L9.33412 17.6175C9.13394 17.5471 9 17.358 9 17.1458V5.05584C9 4.71111 9.34066 4.46979 9.66588 4.58416L14.6659 6.34249C14.8661 6.41289 15 6.60198 15 6.81418V18.9041ZM16.5 6.37715C16.5 6.15391 16.648 5.95772 16.8626 5.89639L18.9926 5.28782C19.312 5.19656 19.63 5.43639 19.63 5.76858V17.7486C19.63 17.9718 19.482 18.168 19.2674 18.2293L17.1374 18.8379C16.818 18.9292 16.5 18.6893 16.5 18.3571V6.37715ZM4.5 6.36038C4.5 6.14516 4.63772 5.95409 4.84189 5.88604L6.84189 5.21937C7.16565 5.11145 7.5 5.35243 7.5 5.69371V17.7653C7.5 17.9805 7.36229 18.1716 7.15811 18.2397L5.15811 18.9063C4.83435 19.0143 4.5 18.7733 4.5 18.432V6.36038Z" fill="#272727"/>
</svg>
