<svg width="32" height="32" viewBox="0 0 32 32" fill="none" xmlns="http://www.w3.org/2000/svg">
<path fill-rule="evenodd" clip-rule="evenodd" d="M21.7787 2.66669C26.2974 2.66669 29.3334 5.83735 29.3334 10.5547V21.4454C29.3334 26.1627 26.2974 29.3334 21.7774 29.3334H10.2201C5.70141 29.3334 2.66675 26.1627 2.66675 21.4454V10.5547C2.66675 5.83735 5.70141 2.66669 10.2201 2.66669H21.7787ZM21.7787 4.66669H10.2201C6.84675 4.66669 4.66675 6.97735 4.66675 10.5547V21.4454C4.66675 25.0227 6.84675 27.3334 10.2201 27.3334H21.7774C25.1521 27.3334 27.3334 25.0227 27.3334 21.4454V10.5547C27.3334 6.97735 25.1521 4.66669 21.7787 4.66669ZM21.2643 14.685C22.0017 14.685 22.5977 15.281 22.5977 16.0183C22.5977 16.7556 22.0017 17.3516 21.2643 17.3516C20.527 17.3516 19.9243 16.7556 19.9243 16.0183C19.9243 15.281 20.515 14.685 21.251 14.685H21.2643ZM15.9181 14.685C16.6554 14.685 17.2514 15.281 17.2514 16.0183C17.2514 16.7556 16.6554 17.3516 15.9181 17.3516C15.1807 17.3516 14.5794 16.7556 14.5794 16.0183C14.5794 15.281 15.1687 14.685 15.9061 14.685H15.9181ZM10.573 14.685C11.3103 14.685 11.9063 15.281 11.9063 16.0183C11.9063 16.7556 11.3103 17.3516 10.573 17.3516C9.83568 17.3516 9.23301 16.7556 9.23301 16.0183C9.23301 15.281 9.82368 14.685 10.561 14.685H10.573Z" fill="#757575"/>
</svg>
