<svg width="42" height="42" viewBox="0 0 42 42" fill="none" xmlns="http://www.w3.org/2000/svg">
<path fill-rule="evenodd" clip-rule="evenodd" d="M18.9087 25.9313L25.3084 36.314C25.5884 36.769 26.0259 36.7638 26.2027 36.7393C26.3794 36.7148 26.8047 36.6063 26.9587 36.09L34.9614 9.06128C35.1014 8.58353 34.8442 8.25803 34.7287 8.14253C34.6167 8.02703 34.2964 7.78028 33.8327 7.91153L6.78465 15.832C6.2719 15.9825 6.1599 16.413 6.1354 16.5898C6.1109 16.77 6.1039 17.2163 6.55715 17.5015L17.0589 24.0693L26.3374 14.6928C26.8467 14.1783 27.6779 14.173 28.1942 14.6823C28.7104 15.1915 28.7139 16.0245 28.2047 16.539L18.9087 25.9313ZM26.0662 39.3748C24.8482 39.3748 23.7317 38.7553 23.0737 37.6913L16.2889 26.682L5.1659 19.7258C3.96715 18.975 3.34065 17.638 3.5349 16.2328C3.7274 14.8275 4.69165 13.711 6.04615 13.3138L33.0942 5.39328C34.3384 5.02928 35.6719 5.37403 36.5889 6.28753C37.5059 7.20978 37.8472 8.55728 37.4762 9.80678L29.4734 36.8338C29.0727 38.1935 27.9527 39.1543 26.5509 39.3415C26.3864 39.3625 26.2272 39.3748 26.0662 39.3748Z" fill="#0094BC"/>
</svg>
