<svg width="24" height="24" viewBox="0 0 24 24" fill="none" xmlns="http://www.w3.org/2000/svg">
<path fill-rule="evenodd" clip-rule="evenodd" d="M10.8049 14.818L14.4619 20.751C14.6219 21.011 14.8719 21.008 14.9729 20.994C15.0739 20.98 15.3169 20.918 15.4049 20.623L19.9779 5.17802C20.0579 4.90502 19.9109 4.71902 19.8449 4.65302C19.7809 4.58702 19.5979 4.44602 19.3329 4.52102L3.87695 9.04702C3.58395 9.13302 3.51995 9.37902 3.50595 9.48002C3.49195 9.58302 3.48795 9.83802 3.74695 10.001L9.74795 13.754L15.0499 8.39602C15.3409 8.10202 15.8159 8.09902 16.1109 8.39002C16.4059 8.68102 16.4079 9.15702 16.1169 9.45102L10.8049 14.818ZM14.8949 22.5C14.1989 22.5 13.5609 22.146 13.1849 21.538L9.30795 15.247L2.95195 11.272C2.26694 10.843 1.90894 10.079 2.01994 9.27602C2.12994 8.47302 2.68095 7.83502 3.45495 7.60802L18.9109 3.08202C19.6219 2.87402 20.3839 3.07102 20.9079 3.59302C21.4319 4.12002 21.6269 4.89002 21.4149 5.60402L16.8419 21.048C16.6129 21.825 15.9729 22.374 15.1719 22.481C15.0779 22.493 14.9869 22.5 14.8949 22.5Z" fill="white"/>
</svg>
