<svg width="16" height="17" viewBox="0 0 16 17" fill="none" xmlns="http://www.w3.org/2000/svg">
<path d="M7.99992 11.1667C9.10659 11.1667 9.99992 10.2733 9.99992 9.16667C9.99992 8.42 9.59325 7.76667 8.99992 7.42667L2.52659 3.68L6.21325 10.0667C6.54659 10.72 7.21992 11.1667 7.99992 11.1667ZM7.99992 2.5C6.79325 2.5 5.66659 2.83333 4.68659 3.38L6.08659 4.18667C6.66659 3.96 7.33325 3.83333 7.99992 3.83333C10.9466 3.83333 13.3333 6.22 13.3333 9.16667C13.3333 10.64 12.7399 11.9733 11.7733 12.9333H11.7666C11.7048 12.995 11.6558 13.0683 11.6223 13.1489C11.5888 13.2296 11.5716 13.316 11.5716 13.4033C11.5716 13.4906 11.5888 13.5771 11.6223 13.6577C11.6558 13.7384 11.7048 13.8117 11.7666 13.8733C12.0266 14.1333 12.4533 14.1333 12.7133 13.88C13.3333 13.2618 13.825 12.5271 14.1602 11.7182C14.4954 10.9094 14.6675 10.0422 14.6666 9.16667C14.6666 5.5 11.6666 2.5 7.99992 2.5ZM1.33325 9.16667C1.33325 11.0067 2.07992 12.6733 3.28659 13.88C3.54659 14.1333 3.96659 14.1333 4.22659 13.8733C4.28839 13.8117 4.33742 13.7384 4.37087 13.6577C4.40433 13.5771 4.42155 13.4906 4.42155 13.4033C4.42155 13.316 4.40433 13.2296 4.37087 13.1489C4.33742 13.0683 4.28839 12.995 4.22659 12.9333C3.73078 12.4396 3.33767 11.8525 3.06992 11.206C2.80217 10.5595 2.66509 9.86641 2.66659 9.16667C2.66659 8.5 2.79325 7.83333 3.02659 7.23333L2.21992 5.83333C1.66659 6.83333 1.33325 7.95333 1.33325 9.16667Z" fill="#272727"/>
</svg>
