<svg width="16" height="17" viewBox="0 0 16 17" fill="none" xmlns="http://www.w3.org/2000/svg">
<g clip-path="url(#clip0_208_3360)">
<path d="M5.33341 7.16669H10.6667V12.5H7.33341L6.00008 11.1667H4.66675V7.83335L5.33341 7.16669ZM4.66675 3.16669V4.50002H6.66675V5.83335H4.66675L3.33341 7.16669V9.16669H2.00008V7.16669H0.666748V12.5H2.00008V10.5H3.33341V12.5H5.33341L6.66675 13.8334H12.0001V11.1667H13.3334V13.1667H15.3334V6.50002H13.3334V8.50002H12.0001V5.83335H8.00008V4.50002H10.0001V3.16669H4.66675Z" fill="#272727"/>
<path d="M15.6 2.7V1.1C15.6 0.94087 15.5368 0.788258 15.4243 0.675736C15.3117 0.563214 15.1591 0.5 15 0.5C14.8409 0.5 14.6883 0.563214 14.5757 0.675736C14.4632 0.788258 14.4 0.94087 14.4 1.1V2.7C14.2321 2.82593 14.1081 3.0015 14.0455 3.20183C13.9829 3.40217 13.9849 3.61712 14.0513 3.81623C14.1177 4.01534 14.245 4.18852 14.4153 4.31124C14.5856 4.43396 14.7901 4.5 15 4.5C15.2099 4.5 15.4144 4.43396 15.5847 4.31124C15.755 4.18852 15.8823 4.01534 15.9487 3.81623C16.0151 3.61712 16.0171 3.40217 15.9545 3.20183C15.8919 3.0015 15.7679 2.82593 15.6 2.7ZM15 0.9C15.053 0.9 15.1039 0.921071 15.1414 0.958579C15.1789 0.996086 15.2 1.04696 15.2 1.1V1.7H14.8V1.1C14.8 1.04696 14.8211 0.996086 14.8586 0.958579C14.8961 0.921071 14.947 0.9 15 0.9Z" fill="#272727"/>
</g>
<defs>
<clipPath id="clip0_208_3360">
<rect width="16" height="16" fill="white" transform="translate(0 0.5)"/>
</clipPath>
</defs>
</svg>
