<svg width="16" height="17" viewBox="0 0 16 17" fill="none" xmlns="http://www.w3.org/2000/svg">
<path d="M7.99992 11.1667C7.46949 11.1667 6.96078 10.956 6.58571 10.5809C6.21064 10.2058 5.99992 9.6971 5.99992 9.16667C5.99992 8.42 6.40659 7.76667 6.99992 7.42667L13.4733 3.68L9.78659 10.0667C9.45326 10.72 8.77992 11.1667 7.99992 11.1667ZM7.99992 2.5C9.20659 2.5 10.3333 2.83333 11.3133 3.38L9.91326 4.18667C9.33326 3.96 8.66659 3.83333 7.99992 3.83333C6.58543 3.83333 5.22888 4.39524 4.22869 5.39543C3.22849 6.39562 2.66659 7.75218 2.66659 9.16667C2.66659 10.64 3.25992 11.9733 4.22659 12.9333H4.23326C4.49326 13.1933 4.49326 13.6133 4.23326 13.8733C3.97326 14.1333 3.54659 14.1333 3.28659 13.88C2.66657 13.2618 2.17483 12.5271 1.83961 11.7182C1.5044 10.9094 1.33231 10.0422 1.33326 9.16667C1.33326 7.39856 2.03563 5.70286 3.28588 4.45262C4.53612 3.20238 6.23181 2.5 7.99992 2.5ZM14.6666 9.16667C14.6666 11.0067 13.9199 12.6733 12.7133 13.88C12.4533 14.1333 12.0333 14.1333 11.7733 13.8733C11.7115 13.8117 11.6624 13.7384 11.629 13.6577C11.5955 13.5771 11.5783 13.4906 11.5783 13.4033C11.5783 13.316 11.5955 13.2296 11.629 13.1489C11.6624 13.0683 11.7115 12.995 11.7733 12.9333C12.2691 12.4396 12.6622 11.8525 12.9299 11.206C13.1977 10.5595 13.3348 9.86641 13.3333 9.16667C13.3333 8.5 13.2066 7.83333 12.9733 7.23333L13.7799 5.83333C14.3333 6.83333 14.6666 7.95333 14.6666 9.16667Z" fill="#272727"/>
</svg>
