<svg width="16" height="17" viewBox="0 0 16 17" fill="none" xmlns="http://www.w3.org/2000/svg">
<path d="M12.0001 7.16667C11.8233 7.16667 11.6537 7.09643 11.5287 6.9714C11.4037 6.84638 11.3334 6.67681 11.3334 6.5C11.3334 6.32319 11.4037 6.15362 11.5287 6.0286C11.6537 5.90357 11.8233 5.83333 12.0001 5.83333C12.1769 5.83333 12.3465 5.90357 12.4715 6.0286C12.5965 6.15362 12.6667 6.32319 12.6667 6.5C12.6667 6.67681 12.5965 6.84638 12.4715 6.9714C12.3465 7.09643 12.1769 7.16667 12.0001 7.16667ZM8.00008 7.16667H4.00008V3.83333H8.00008V7.16667ZM13.1801 5.32L13.1867 5.31333L10.7067 2.83333L10.0001 3.54L11.4067 4.94667C10.7801 5.16667 10.3334 5.78667 10.3334 6.5C10.3334 6.71887 10.3765 6.9356 10.4603 7.13781C10.544 7.34002 10.6668 7.52375 10.8216 7.67851C11.1341 7.99107 11.5581 8.16667 12.0001 8.16667C12.2401 8.16667 12.4601 8.11333 12.6667 8.02667V12.8333C12.6667 13.0101 12.5965 13.1797 12.4715 13.3047C12.3465 13.4298 12.1769 13.5 12.0001 13.5C11.8233 13.5 11.6537 13.4298 11.5287 13.3047C11.4037 13.1797 11.3334 13.0101 11.3334 12.8333V9.83333C11.3334 9.47971 11.1929 9.14057 10.9429 8.89052C10.6928 8.64048 10.3537 8.5 10.0001 8.5H9.33342V3.83333C9.33342 3.47971 9.19294 3.14057 8.94289 2.89052C8.69284 2.64048 8.3537 2.5 8.00008 2.5H4.00008C3.26008 2.5 2.66675 3.09333 2.66675 3.83333V14.5H9.33342V9.5H10.3334V12.8333C10.3334 13.2754 10.509 13.6993 10.8216 14.0118C11.1341 14.3244 11.5581 14.5 12.0001 14.5C12.219 14.5 12.4357 14.4569 12.6379 14.3731C12.8401 14.2894 13.0238 14.1666 13.1786 14.0118C13.3334 13.8571 13.4561 13.6733 13.5399 13.4711C13.6236 13.2689 13.6667 13.0522 13.6667 12.8333V6.5C13.6667 6.04 13.4801 5.62 13.1801 5.32Z" fill="#272727"/>
</svg>
