<svg width="16" height="17" viewBox="0 0 16 17" fill="none" xmlns="http://www.w3.org/2000/svg">
<path d="M15.3667 7.83331H13.3667V3.16665L10.0334 9.83331H12.0334V15.1666L15.3667 7.83331ZM8.00003 12.5H2.6667L2.70003 4.49998H8.03337L8.00003 12.5ZM8.48003 3.16665H7.3667V1.83331H3.3667V3.16665H2.25337C2.01821 3.16665 1.79268 3.26006 1.6264 3.42634C1.46012 3.59263 1.3667 3.81815 1.3667 4.05331V14.28C1.3667 14.7666 1.7667 15.1666 2.25337 15.1666H8.48003C8.9667 15.1666 9.3667 14.7666 9.3667 14.28V4.05331C9.3667 3.81815 9.27328 3.59263 9.107 3.42634C8.94072 3.26006 8.71519 3.16665 8.48003 3.16665Z" fill="#272727"/>
</svg>
