<svg width="16" height="17" viewBox="0 0 16 17" fill="none" xmlns="http://www.w3.org/2000/svg">
<g clip-path="url(#clip0_208_3347)">
<path d="M5.33317 7.1665H10.6665V12.4998H7.33317L5.99984 11.1665H4.6665V7.83317L5.33317 7.1665ZM4.6665 3.1665V4.49984H6.6665V5.83317H4.6665L3.33317 7.1665V9.1665H1.99984V7.1665H0.666504V12.4998H1.99984V10.4998H3.33317V12.4998H5.33317L6.6665 13.8332H11.9998V11.1665H13.3332V13.1665H15.3332V6.49984H13.3332V8.49984H11.9998V5.83317H7.99984V4.49984H9.99984V3.1665H4.6665Z" fill="#272727"/>
<path d="M14 4.1C14.4243 4.1 14.8313 3.93143 15.1314 3.63137C15.4314 3.33131 15.6 2.92435 15.6 2.5C15.6 2.07565 15.4314 1.66869 15.1314 1.36863C14.8313 1.06857 14.4243 0.9 14 0.9C13.5757 0.9 13.1687 1.06857 12.8686 1.36863C12.5686 1.66869 12.4 2.07565 12.4 2.5C12.4 2.92435 12.5686 3.33131 12.8686 3.63137C13.1687 3.93143 13.5757 4.1 14 4.1ZM14 0.5C14.2626 0.5 14.5227 0.551732 14.7654 0.652241C15.008 0.75275 15.2285 0.900069 15.4142 1.08579C15.5999 1.2715 15.7472 1.49198 15.8478 1.73463C15.9483 1.97728 16 2.23736 16 2.5C16 3.03043 15.7893 3.53914 15.4142 3.91421C15.0391 4.28929 14.5304 4.5 14 4.5C12.894 4.5 12 3.6 12 2.5C12 1.96957 12.2107 1.46086 12.5858 1.08579C12.9609 0.710714 13.4696 0.5 14 0.5ZM14.1 1.5V2.55L15 3.084L14.85 3.33L13.8 2.7V1.5H14.1Z" fill="#272727"/>
</g>
<defs>
<clipPath id="clip0_208_3347">
<rect width="16" height="16" fill="white" transform="translate(0 0.5)"/>
</clipPath>
</defs>
</svg>
