<svg width="16" height="17" viewBox="0 0 16 17" fill="none" xmlns="http://www.w3.org/2000/svg">
<path d="M14 12.5H10V10.5H8.86667C8.13333 12.1 6.46667 13.1666 4.66667 13.1666C2.06667 13.1666 0 11.1 0 8.49998C0 5.89998 2.06667 3.83331 4.66667 3.83331C6.46667 3.83331 8.13333 4.89998 8.86667 6.49998H16V10.5H14V12.5ZM11.3333 11.1666H12.6667V9.16665H14.6667V7.83331H7.93333L7.8 7.36665C7.33333 6.03331 6.06667 5.16665 4.66667 5.16665C2.8 5.16665 1.33333 6.63331 1.33333 8.49998C1.33333 10.3666 2.8 11.8333 4.66667 11.8333C6.06667 11.8333 7.33333 10.9666 7.8 9.63331L7.93333 9.16665H11.3333V11.1666ZM4.66667 10.5C3.53333 10.5 2.66667 9.63331 2.66667 8.49998C2.66667 7.36665 3.53333 6.49998 4.66667 6.49998C5.8 6.49998 6.66667 7.36665 6.66667 8.49998C6.66667 9.63331 5.8 10.5 4.66667 10.5ZM4.66667 7.83331C4.26667 7.83331 4 8.09998 4 8.49998C4 8.89998 4.26667 9.16665 4.66667 9.16665C5.06667 9.16665 5.33333 8.89998 5.33333 8.49998C5.33333 8.09998 5.06667 7.83331 4.66667 7.83331Z" fill="#272727"/>
</svg>
