<svg width="16" height="17" viewBox="0 0 16 17" fill="none" xmlns="http://www.w3.org/2000/svg">
<path d="M14.6666 9.21329C14.6666 11.3951 13.6666 13.3252 12.0833 14.5L11.6666 14.0804L9.91659 12.3182L11.0833 11.1434L12.0833 12.1503C12.4999 11.5629 12.8333 10.8077 12.9166 10.0524H11.3333V8.37413H12.9166C12.7499 7.61888 12.4999 6.94755 12.0833 6.27622L11.0833 7.28322L9.91659 6.10839L10.9166 5.1014C10.3333 4.68182 9.58325 4.34615 8.83325 4.26224V5.85664H7.16659V4.26224C6.41659 4.43007 5.74992 4.68182 5.08325 5.1014L7.58325 7.61888C7.74992 7.61888 7.83325 7.53497 7.99992 7.53497C8.44195 7.53497 8.86587 7.71179 9.17843 8.02653C9.49099 8.34128 9.66659 8.76817 9.66659 9.21329C9.66659 9.65841 9.49099 10.0853 9.17843 10.4C8.86587 10.7148 8.44195 10.8916 7.99992 10.8916C7.07492 10.8916 6.33325 10.1448 6.33325 9.21329C6.33325 9.04545 6.33325 8.96154 6.41659 8.79371L3.91659 6.27622C3.49992 6.86364 3.16659 7.61888 3.08325 8.37413H4.66659V10.0524H3.08325C3.24992 10.8077 3.49992 11.479 3.91659 12.1503L4.91659 11.1434L6.08325 12.3182L3.91659 14.5C2.33325 13.3252 1.33325 11.3951 1.33325 9.21329C1.33325 5.5042 4.31659 2.5 7.99992 2.5C11.6833 2.5 14.6666 5.5042 14.6666 9.21329Z" fill="#272727"/>
</svg>
