<svg width="24" height="24" viewBox="0 0 24 24" fill="none" xmlns="http://www.w3.org/2000/svg">
<path fill-rule="evenodd" clip-rule="evenodd" d="M2.26069 12.7019C4.88265 10.2641 6.97151 9.63094 8.69106 9.76754C10.455 9.90767 12.0038 10.8646 13.5399 11.9969C13.8076 12.1942 14.081 12.4015 14.3552 12.6094C14.8362 12.9741 15.3197 13.3408 15.7802 13.6593C16.5146 14.1676 17.287 14.6252 18.0941 14.8651C18.9232 15.1115 19.7944 15.1293 20.6853 14.7544C21.2607 14.5123 21.813 14.1195 22.3523 13.5709C22.4243 13.5823 22.4982 13.5882 22.5735 13.5882C23.3532 13.5882 23.9853 12.9561 23.9853 12.1764C23.9853 11.3967 23.3532 10.7647 22.5735 10.7647C21.7938 10.7647 21.1618 11.3967 21.1618 12.1764C21.1618 12.3172 21.1824 12.4531 21.2207 12.5814C20.815 12.9819 20.4427 13.2291 20.1035 13.3718C19.5844 13.5902 19.0764 13.5922 18.5215 13.4273C17.9446 13.2558 17.3283 12.9065 16.6337 12.4258C16.195 12.1223 15.7628 11.7943 15.3047 11.4467C15.0252 11.2346 14.7361 11.0151 14.4299 10.7895C12.8752 9.64342 11.0293 8.44856 8.80984 8.27225C6.54601 8.09242 4.06284 8.97816 1.23931 11.6034C0.935961 11.8854 0.918688 12.36 1.20073 12.6633C1.48278 12.9667 1.95734 12.9839 2.26069 12.7019Z" fill="#272727"/>
</svg>
