<svg width="24" height="24" viewBox="0 0 24 24" fill="none" xmlns="http://www.w3.org/2000/svg">
<path fill-rule="evenodd" clip-rule="evenodd" d="M22.1595 5.22703L20.9895 4.95103L17.8275 8.09503L16.0365 6.27103L19.1205 3.03553L18.8505 1.84753C18.1988 1.6295 17.5172 1.51413 16.83 1.50553C16.0804 1.494 15.3365 1.63697 14.6445 1.92553C13.9764 2.22794 13.3725 2.65567 12.8655 3.18553C12.3012 3.72015 11.8542 4.36634 11.553 5.08303C10.9732 6.50935 10.9732 8.1057 11.553 9.53203C8.4259 12.6085 5.33913 15.7258 2.29354 18.883C1.97854 19.2955 1.82854 19.81 1.86754 20.3275C1.89828 20.8841 2.14859 21.4058 2.56354 21.778C2.74954 21.9805 2.97154 22.1485 3.21904 22.27C3.47404 22.3825 3.74854 22.447 4.02604 22.4605C4.50004 22.4515 4.95454 22.2715 5.30704 21.955C7.62904 19.7695 12.078 15.28 14.6055 12.649C15.291 12.94 16.0275 13.09 16.7715 13.0885C17.5205 13.0879 18.2617 12.9372 18.9514 12.6453C19.6411 12.3534 20.2652 11.9263 20.787 11.389C21.8589 10.2959 22.4575 8.82494 22.4535 7.29403C22.4709 6.59349 22.3715 5.89495 22.1595 5.22703ZM4.39954 20.8915C4.34181 20.9428 4.27221 20.9789 4.19704 20.9965C4.12309 21.0093 4.04749 21.0093 3.97354 20.9965C3.89601 20.9847 3.82216 20.9555 3.75754 20.911C3.68821 20.8704 3.62958 20.8139 3.58654 20.746C3.37654 20.5315 3.18004 20.1235 3.37654 19.894C5.43154 17.7085 9.66304 13.4365 12.309 10.825C12.459 11.023 12.624 11.212 12.801 11.389C12.978 11.5735 13.1685 11.7445 13.371 11.9005C10.812 14.5255 6.63904 18.7465 4.40104 20.8915H4.39954ZM21.0765 7.29403C21.0795 8.44153 20.6325 9.54403 19.8285 10.366C19.0262 11.1531 17.9472 11.594 16.8233 11.594C15.6994 11.594 14.6204 11.1531 13.818 10.366C13.23 9.75237 12.8283 8.98436 12.6597 8.15135C12.4911 7.31833 12.5625 6.45456 12.8655 5.66053C13.0673 5.12013 13.3802 4.62809 13.7841 4.21622C14.1879 3.80436 14.6737 3.48184 15.21 3.26953C15.7193 3.05639 16.266 2.94725 16.818 2.94853H17.199L14.4735 5.75803V6.80203L17.316 9.63103H18.306L21.0765 6.90703V7.29403ZM4.86004 10.0315H7.15654L8.21404 11.107L9.23104 10.096L8.23354 9.07903V9.01453L8.31904 6.54103L7.98904 5.88553L3.69904 3.06253L2.81254 3.16153L1.56604 4.43503L1.46704 5.33353L4.22404 9.71053L4.86004 10.033V10.0315ZM3.44254 4.58353L6.91354 6.86953L6.85504 8.55403H5.24104L3.00304 5.01103L3.44254 4.58353ZM14.1 15.0235L15.111 14.014L19.77 18.7915C20.1625 19.204 20.3813 19.7515 20.3813 20.3208C20.3813 20.8901 20.1625 21.4376 19.77 21.85C19.475 22.153 19.0955 22.3601 18.6811 22.4443C18.2667 22.5286 17.8365 22.4862 17.4465 22.3225C17.1977 22.2121 16.9745 22.0512 16.791 21.85L12.078 17.0455L13.0965 16.0285L17.7945 20.8195C17.8577 20.8892 17.9363 20.9431 18.024 20.977C18.1967 21.0472 18.3899 21.0472 18.5625 20.977C18.6503 20.9431 18.7288 20.8892 18.792 20.8195C18.8577 20.7545 18.9088 20.6763 18.942 20.59C18.9765 20.502 18.9947 20.4085 18.996 20.314C18.9945 20.2197 18.9768 20.1263 18.9435 20.038C18.9103 19.9518 18.8592 19.8736 18.7935 19.8085L14.1 15.0235Z" fill="white"/>
</svg>
